<?xml version="1.0" standalone="no"?>
<!DOCTYPE svg PUBLIC "-//W3C//DTD SVG 20010904//EN"
 "http://www.w3.org/TR/2001/REC-SVG-20010904/DTD/svg10.dtd">
<svg version="1.0" xmlns="http://www.w3.org/2000/svg"
 width="100.000000pt" height="100.000000pt" viewBox="0 0 100.000000 100.000000"
 preserveAspectRatio="xMidYMid meet">

<g transform="translate(0.000000,100.000000) scale(0.100000,-0.100000)"
fill="#000000" stroke="none">
<path d="M355 990 c-228 -36 -320 -138 -347 -387 -9 -78 -9 -128 0 -206 32
-294 155 -391 492 -391 337 0 460 97 492 391 9 78 9 128 0 206 -24 223 -100
325 -277 372 -73 19 -277 28 -360 15z m330 -220 c87 -43 118 -114 118 -270 1
-126 -16 -183 -68 -236 -51 -51 -112 -68 -240 -67 -151 1 -222 32 -265 118
-21 43 -25 67 -28 162 -4 139 12 207 63 258 51 51 108 65 250 62 105 -2 126
-5 170 -27z"/>
<path d="M395 711 c-92 -24 -110 -58 -110 -211 0 -98 3 -120 21 -150 28 -48
65 -64 162 -68 123 -6 170 4 209 43 41 41 43 58 6 48 -16 -5 -81 -8 -146 -8
-118 0 -119 0 -143 28 -49 57 -23 105 73 133 70 20 82 29 76 54 -11 40 -113
38 -134 -3 l-12 -21 -9 24 c-27 73 146 100 199 31 7 -9 13 -46 13 -82 0 -51
-4 -69 -17 -81 -39 -33 -43 -31 -37 16 l7 45 -59 -18 c-55 -16 -59 -19 -59
-47 0 -25 5 -31 40 -42 59 -19 188 -2 222 30 23 21 25 28 21 103 -6 144 -42
176 -197 181 -53 2 -109 0 -126 -5z"/>
</g>
</svg>
